<?xml version="1.0" encoding="UTF-8"?><svg xmlns="http://www.w3.org/2000/svg" xmlns:xlink="http://www.w3.org/1999/xlink" contentScriptType="text/ecmascript" width="283.5" zoomAndPan="magnify" contentStyleType="text/css" viewBox="0 0 283.5 283.499996" height="283.499996" preserveAspectRatio="xMidYMid meet" version="1.0"><defs><clipPath id="clip-0"><path d="M 42.277344 146.101562 L 242.726562 146.101562 L 242.726562 257.980469 L 42.277344 257.980469 Z M 42.277344 146.101562 " clip-rule="nonzero"/></clipPath><clipPath id="clip-1"><path d="M 137 141.730469 L 148 141.730469 L 148 152 L 137 152 Z M 137 141.730469 " clip-rule="nonzero"/></clipPath><clipPath id="clip-2"><path d="M 236.476562 168.578125 L 246.140625 168.578125 L 246.140625 178.359375 L 236.476562 178.359375 Z M 236.476562 168.578125 " clip-rule="nonzero"/></clipPath></defs><path fill="rgb(96.859741%, 32.159424%, 56.858826%)" d="M 74.011719 205.839844 L 89.0625 164.023438 L 110.703125 202.550781 Z M 74.011719 205.839844 " fill-opacity="1" fill-rule="nonzero"/><path fill="rgb(96.859741%, 32.159424%, 56.858826%)" d="M 173.796875 205.839844 L 188.847656 164.023438 L 210.488281 202.550781 Z M 173.796875 205.839844 " fill-opacity="1" fill-rule="nonzero"/><g clip-path="url(#clip-0)"><path fill="rgb(100%, 41.178894%, 61.178589%)" d="M 142.453125 146.15625 C 142.453125 146.15625 91.074219 248.453125 42.367188 171.816406 C 42.367188 171.816406 44.222656 200.984375 58.238281 248.964844 C 153.652344 269.625 227.800781 248.339844 227.800781 248.339844 C 241.8125 200.355469 242.539062 172.480469 242.539062 172.480469 C 193.828125 249.121094 142.453125 146.15625 142.453125 146.15625 " fill-opacity="1" fill-rule="nonzero"/></g><path fill="rgb(100%, 41.178894%, 61.178589%)" d="M 46.683594 171.28125 C 46.683594 173.933594 44.53125 176.082031 41.875 176.082031 C 39.21875 176.082031 37.066406 173.933594 37.066406 171.28125 C 37.066406 168.628906 39.21875 166.476562 41.875 166.476562 C 44.53125 166.476562 46.683594 168.628906 46.683594 171.28125 " fill-opacity="1" fill-rule="nonzero"/><g clip-path="url(#clip-1)"><path fill="rgb(100%, 41.178894%, 61.178589%)" d="M 147.039062 146.535156 C 147.039062 149.1875 144.886719 151.335938 142.230469 151.335938 C 139.574219 151.335938 137.421875 149.1875 137.421875 146.535156 C 137.421875 143.882812 139.574219 141.734375 142.230469 141.734375 C 144.886719 141.734375 147.039062 143.882812 147.039062 146.535156 " fill-opacity="1" fill-rule="nonzero"/></g><g clip-path="url(#clip-2)"><path fill="rgb(100%, 41.178894%, 61.178589%)" d="M 246.140625 173.472656 C 246.140625 176.125 243.988281 178.273438 241.332031 178.273438 C 238.675781 178.273438 236.523438 176.125 236.523438 173.472656 C 236.523438 170.820312 238.675781 168.671875 241.332031 168.671875 C 243.988281 168.671875 246.140625 170.820312 246.140625 173.472656 " fill-opacity="1" fill-rule="nonzero"/></g><path fill="rgb(96.859741%, 32.159424%, 56.858826%)" d="M 193.742188 164.074219 C 193.742188 166.726562 191.589844 168.878906 188.933594 168.878906 C 186.277344 168.878906 184.125 166.726562 184.125 164.074219 C 184.125 161.421875 186.277344 159.273438 188.933594 159.273438 C 191.589844 159.273438 193.742188 161.421875 193.742188 164.074219 " fill-opacity="1" fill-rule="nonzero"/><path fill="rgb(96.859741%, 32.159424%, 56.858826%)" d="M 94.265625 164.074219 C 94.265625 166.726562 92.113281 168.878906 89.457031 168.878906 C 86.800781 168.878906 84.648438 166.726562 84.648438 164.074219 C 84.648438 161.421875 86.800781 159.273438 89.457031 159.273438 C 92.113281 159.273438 94.265625 161.421875 94.265625 164.074219 " fill-opacity="1" fill-rule="nonzero"/><path fill="rgb(100%, 100%, 100%)" d="M 141.707031 209.160156 C 120.59375 192.894531 112.25 213.019531 119.230469 225.300781 C 126.234375 237.617188 141.191406 243.929688 141.191406 243.929688 C 141.191406 243.929688 156.324219 238.046875 163.691406 225.980469 C 171.035156 213.894531 163.3125 193.535156 141.707031 209.160156 " fill-opacity="1" fill-rule="nonzero"/><path stroke-linecap="butt" transform="matrix(0.824028, -0.0850717, 0.0850717, 0.824028, 64.418737, 27.839904)" fill="none" stroke-linejoin="miter" d="M 19.479044 128.00214 C 19.062097 119.459499 18.925797 91.576424 19.481975 78.934223 L 28.85376 78.934707 C 32.015696 78.934052 35.280965 79.631427 36.978961 80.081671 C 36.98313 78.342363 36.983262 75.080959 36.98348 72.231981 L 36.979435 64.419331 C 35.28197 64.974113 32.016351 65.703572 28.854415 65.704227 L 19.482629 65.703743 C 19.478071 62.441855 19.202617 61.574361 19.204097 47.647123 C 19.204135 37.682737 19.341857 30.287659 19.479551 27.438653 L 45.803035 27.43999 C 49.064439 27.440123 52.331493 28.166125 54.032423 28.725702 C 54.032717 27.023917 54.028644 23.757339 54.028862 20.908361 L 54.032897 13.063361 C 52.327324 13.513017 49.065094 14.209643 45.798999 14.209026 L 20.627397 14.208097 C 18.925612 14.207803 15.659518 14.207186 12.815231 14.207452 L 4.965057 14.207623 C 5.557334 15.771486 6.248785 19.037922 6.249953 22.332644 C 6.249554 22.749761 6.39136 34.278911 6.38989 63.8638 C 6.388089 105.114859 6.249588 118.89996 6.249664 120.047153 C 6.249446 122.89613 5.973935 126.437233 5.41902 128.001172 Z M 19.479044 128.00214 " stroke="rgb(96.859741%, 32.159424%, 56.858826%)" stroke-width="5.333925" stroke-opacity="1" stroke-miterlimit="4"/><path stroke-linecap="butt" transform="matrix(0.828402, 0.0032486, -0.0032486, 0.828402, 118.610895, 22.584371)" fill="none" stroke-linejoin="miter" d="M 28.301931 129.144914 C 46.357223 129.144841 57.017299 116.748672 57.015488 95.845281 C 57.017301 74.663668 37.674465 62.578488 24.755948 54.594095 C 16.909447 49.767997 15.346934 44.521161 15.350041 38.098765 C 15.348784 30.56355 20.76563 25.4591 28.857273 25.460376 C 38.264512 25.461208 42.399657 29.000409 42.952941 37.820765 L 55.313477 36.989535 C 54.343081 21.606969 44.935342 13.061822 28.855813 13.063578 C 13.922109 13.06084 2.986047 23.619083 2.98625 38.100096 C 2.985935 50.044222 7.81501 58.588463 18.195771 65.149324 C 32.154269 73.794511 44.793139 82.614627 44.793157 95.846058 C 44.794969 116.749448 32.294433 116.751315 28.300471 116.748116 C 16.356345 116.747801 14.792279 102.687877 14.653352 102.132003 L 2.431206 103.382361 C 2.571131 105.395291 3.541435 112.33728 8.088718 118.765409 C 12.953408 125.569525 19.899077 129.144858 28.301931 129.144914 Z M 28.301931 129.144914 " stroke="rgb(96.859741%, 32.159424%, 56.858826%)" stroke-width="5.333925" stroke-opacity="1" stroke-miterlimit="4"/><path stroke-linecap="butt" transform="matrix(0.823688, 0.0883024, -0.0883024, 0.823688, 175.236943, 23.33476)" fill="none" stroke-linejoin="miter" d="M 41.532012 114.630446 L 19.48015 114.632778 C 19.062699 106.226592 18.92513 90.74321 19.482303 78.068723 L 28.857534 78.064307 C 32.016268 78.067131 35.28104 78.793658 36.981162 79.213682 C 36.978883 77.511408 36.980026 74.248522 36.982701 71.398059 L 36.980054 63.587627 C 35.280326 64.144493 32.015806 64.835914 28.857575 64.837778 L 19.481841 64.837505 C 19.478296 61.575121 19.202334 61.43398 19.203505 47.510198 C 19.202914 37.68403 19.339273 30.285511 19.479925 27.439226 L 41.389624 27.437908 C 44.657199 27.438548 47.917785 28.170266 49.480441 28.723587 C 49.48285 27.02081 49.483993 23.757924 49.482482 20.912652 L 49.480503 13.064209 C 47.921257 13.51591 44.656738 14.207331 41.389665 14.211378 L 20.627151 14.208275 C 18.924877 14.210554 15.66199 14.209411 12.81203 14.211424 L 4.967773 14.208212 C 5.557451 15.771636 6.248872 19.036156 6.251749 22.33655 C 6.251872 27.159548 6.388529 41.395778 6.389997 62.997206 C 6.387456 104.246783 6.250688 118.763672 6.250933 120.048834 C 6.248415 122.723811 5.973187 126.438154 5.415178 128.001312 L 5.83229 127.999277 C 6.249905 128.001931 6.979976 127.999543 7.952178 127.999652 L 41.528295 127.99964 C 44.79587 128.000281 48.057124 128.693988 49.794087 129.148002 C 49.796496 127.445226 49.793618 124.144831 49.796796 121.299057 L 49.793646 113.483936 C 48.060085 113.902158 44.794898 114.631589 41.532012 114.630446 Z M 41.532012 114.630446 " stroke="rgb(96.859741%, 32.159424%, 56.858826%)" stroke-width="5.333925" stroke-opacity="1" stroke-miterlimit="4"/></svg>